<svg xmlns="http://www.w3.org/2000/svg" xmlns:xlink="http://www.w3.org/1999/xlink" width="230" height="60" viewBox="0 0 230 60"><defs><clipPath id="a"><rect width="230" height="60" transform="translate(4530 -113)" fill="#fff"/></clipPath></defs><g transform="translate(-4530 113)" clip-path="url(#a)"><g transform="translate(4690.5 -86.5)" fill="none" stroke="#fff" stroke-miterlimit="10" stroke-width="1.5" opacity="0.1"><circle cx="9" cy="9" r="9" stroke="none"/><circle cx="9" cy="9" r="8.25" fill="none"/></g><g transform="translate(4683 -94)" fill="none" stroke="#fff" stroke-miterlimit="10" stroke-width="1.5" opacity="0.1"><circle cx="16.5" cy="16.5" r="16.5" stroke="none"/><circle cx="16.5" cy="16.5" r="15.75" fill="none"/></g><g transform="translate(4675.5 -101.5)" fill="none" stroke="#fff" stroke-miterlimit="10" stroke-width="1.5" opacity="0.1"><circle cx="24" cy="24" r="24" stroke="none"/><circle cx="24" cy="24" r="23.25" fill="none"/></g><g transform="translate(4668 -109)" fill="none" stroke="#fff" stroke-miterlimit="10" stroke-width="1.5" opacity="0.08"><circle cx="31.5" cy="31.5" r="31.5" stroke="none"/><circle cx="31.5" cy="31.5" r="30.75" fill="none"/></g><g transform="translate(4660.5 -116.5)" fill="none" stroke="#fff" stroke-miterlimit="10" stroke-width="1.5" opacity="0.09"><circle cx="39" cy="39" r="39" stroke="none"/><circle cx="39" cy="39" r="38.25" fill="none"/></g><g transform="translate(4653 -124)" fill="none" stroke="#fff" stroke-miterlimit="10" stroke-width="1.5" opacity="0.07"><circle cx="46.5" cy="46.5" r="46.5" stroke="none"/><circle cx="46.5" cy="46.5" r="45.75" fill="none"/></g><g transform="translate(4645.5 -131.5)" fill="none" stroke="#fff" stroke-miterlimit="10" stroke-width="1.5" opacity="0.05"><circle cx="54" cy="54" r="54" stroke="none"/><circle cx="54" cy="54" r="53.25" fill="none"/></g><g transform="translate(4638 -139)" fill="none" stroke="#fff" stroke-miterlimit="10" stroke-width="1.5" opacity="0.03"><circle cx="61.5" cy="61.5" r="61.5" stroke="none"/><circle cx="61.5" cy="61.5" r="60.75" fill="none"/></g><path d="M36.338,26.138a6.768,6.768,0,0,1-3.225-3.256,14.944,14.944,0,0,1-.945-5.945V9.451a12.833,12.833,0,0,1,.775-5.063,7.06,7.06,0,0,1,3.3-3.047A13.066,13.066,0,0,1,42.4,0a13.22,13.22,0,0,1,6.153,1.332,6.939,6.939,0,0,1,3.4,3.358,15.574,15.574,0,0,1,.842,5.744H44.084V7.388a5.4,5.4,0,0,0-.291-2.16,1.1,1.1,0,0,0-1.074-.569,1.088,1.088,0,0,0-1.051.5A5.723,5.723,0,0,0,41.4,7.382V19.818a4.419,4.419,0,0,0,.4,2.117,1.288,1.288,0,0,0,1.182.706A1.231,1.231,0,0,0,44.22,21.9a8.093,8.093,0,0,0,.322-2.8V15.946h8.25a36.488,36.488,0,0,1-.262,4.75A7.147,7.147,0,0,1,51,23.943a7.983,7.983,0,0,1-3.361,2.511,13.707,13.707,0,0,1-5.127.846A13.789,13.789,0,0,1,36.338,26.138Zm19.637-.019c-1.336-.783-2.013-2.522-2.013-5.168V18.79c0-1.961.359-3.316,1.068-4.027s2.49-1.552,5.3-2.5c3-1.026,4.63-1.727,4.841-2.083a4.941,4.941,0,0,0,.319-2.192,6.648,6.648,0,0,0-.349-2.7,1.226,1.226,0,0,0-1.159-.629c-.613,0-1,.178-1.147.528a9.584,9.584,0,0,0-.225,2.74V10.7H53.961V8.927A11.094,11.094,0,0,1,54.77,4.2a7.081,7.081,0,0,1,3.246-2.932A13.747,13.747,0,0,1,64.35,0c3.1,0,5.466.485,7.04,1.441a5.694,5.694,0,0,1,2.848,3.536,48.609,48.609,0,0,1,.479,8.632V26.84H65.747V24.475a5.576,5.576,0,0,1-2.174,2.118A6.714,6.714,0,0,1,60.4,27.3,8.629,8.629,0,0,1,55.975,26.119Zm6.979-9.448a8.357,8.357,0,0,0-.349,2.738,7.105,7.105,0,0,0,.3,2.637,1.224,1.224,0,0,0,1.2.595,1.169,1.169,0,0,0,1.114-.466,6.72,6.72,0,0,0,.259-2.449V14.312A6.319,6.319,0,0,0,62.953,16.671ZM3,26.663A4.529,4.529,0,0,1,.972,24.974a5.636,5.636,0,0,1-.812-2.2A40.768,40.768,0,0,1,0,18.24V.46H9.232V18.406a16.4,16.4,0,0,0,.217,3.658c.144.382.541.577,1.179.577.684,0,1.1-.2,1.225-.6a20.117,20.117,0,0,0,.194-3.837V.46H21.28V26.84H11.887l.16-2.206a6.162,6.162,0,0,1-2.366,2,7.509,7.509,0,0,1-3.235.666A8.259,8.259,0,0,1,3,26.663Zm105.115.117a4.068,4.068,0,0,1-1.9-1.17,4.633,4.633,0,0,1-.964-1.894,14.323,14.323,0,0,1-.289-3.334v-4.47a11,11,0,0,1,.525-3.8,4.38,4.38,0,0,1,1.889-2.2,6.673,6.673,0,0,1,3.489-.828,7.969,7.969,0,0,1,3.062.533,4.81,4.81,0,0,1,2.925,3.148,11.01,11.01,0,0,1,.257,2.762V19.8a18.107,18.107,0,0,1-.237,3.452,4.891,4.891,0,0,1-1.011,2.051,4.585,4.585,0,0,1-1.986,1.406,7.957,7.957,0,0,1-2.787.454A9.994,9.994,0,0,1,108.11,26.78Zm2.312-14.259a5.439,5.439,0,0,0-.157,1.691V22.1a5.187,5.187,0,0,0,.157,1.612.6.6,0,0,0,.613.374.609.609,0,0,0,.619-.341,4.544,4.544,0,0,0,.149-1.475V14.213a5.8,5.8,0,0,0-.143-1.691.6.6,0,0,0-.614-.348A.617.617,0,0,0,110.422,12.522ZM94.757,26.4A4.251,4.251,0,0,1,92.9,24.242a11.231,11.231,0,0,1-.545-3.937V15.348a9.672,9.672,0,0,1,.446-3.353,4.363,4.363,0,0,1,1.9-2.018,6.731,6.731,0,0,1,3.545-.887,6.821,6.821,0,0,1,3.546.878,4.34,4.34,0,0,1,1.956,2.218,11.651,11.651,0,0,1,.486,3.794H99.229V13.971a3.979,3.979,0,0,0-.17-1.424.633.633,0,0,0-.629-.374.618.618,0,0,0-.616.329,4.286,4.286,0,0,0-.157,1.474v8.239a3.256,3.256,0,0,0,.234,1.4.744.744,0,0,0,.689.467A.713.713,0,0,0,99.3,23.6a5.915,5.915,0,0,0,.189-1.837V19.688h4.747a27.583,27.583,0,0,1-.151,3.13,5.034,5.034,0,0,1-.88,2.139,4.717,4.717,0,0,1-1.937,1.653,7,7,0,0,1-2.954.557A7.07,7.07,0,0,1,94.757,26.4Zm65.151.441q-.451-3.2-1.1-8.436-.231,2.31-.629,4.645L157.6,26.84h-5.746l-1.83-14.273h-1.3v9.361a5.008,5.008,0,0,0,.179,1.926q.178.2,1.49.2V26.84h-2.141a15.261,15.261,0,0,1-2.586-.151,2.751,2.751,0,0,1-1.366-.7,2.32,2.32,0,0,1-.735-1.249,22.176,22.176,0,0,1-.145-3.309V12.567h-1.146V9.811h1.146V7.088h5.3V9.811h.947l-.051-.394h4.556q.078.674,1.157,10,.117-.981,1.2-10h4.37l1.073,10a96.377,96.377,0,0,1,1.221-10h4.557L165.622,26.84Zm-21.523,0V22.508h3.994V26.84Zm-6.491,0V15.472a14.459,14.459,0,0,0-.149-2.767.664.664,0,0,0-.7-.532.689.689,0,0,0-.724.526,13.269,13.269,0,0,0-.163,2.773V26.84h-5.14V15.761a20.6,20.6,0,0,0-.123-3.075.627.627,0,0,0-.682-.512.781.781,0,0,0-.6.269,1.04,1.04,0,0,0-.273.657q-.027.387-.026,1.649V26.84h-5.141V9.417h5.239l-.1,1.654a4.292,4.292,0,0,1,1.464-1.487,3.871,3.871,0,0,1,5.273,1.487,4.789,4.789,0,0,1,1.506-1.487,3.589,3.589,0,0,1,1.859-.495,3.642,3.642,0,0,1,2.232.657,2.89,2.89,0,0,1,1.133,1.609,13.617,13.617,0,0,1,.248,3.094V26.84Zm-40.561,0H87.34V22.508h3.994v4.331h0Zm-5.624,0h-9.23V.46h9.166l-.328,3.486A6.839,6.839,0,0,1,91.145,0V9.253h-.014a8.653,8.653,0,0,0-3.693.6,2.587,2.587,0,0,0-1.456,1.661,26.348,26.348,0,0,0-.272,4.9V26.839h0ZM30.686,16.406H22.307V10.894h8.38v5.512h0Z" transform="translate(4530.174 -103)" fill="#fff"/><path d="M36.374,9.056l-.131-1.064a3.472,3.472,0,0,0,.62.063.962.962,0,0,0,.755-.276,1.9,1.9,0,0,0,.375-.707L35.883,1.936h1.555l1.334,3.636,1.3-3.636h1.538L39.646,6.852l-.363.9a3.606,3.606,0,0,1-.368.687,1.56,1.56,0,0,1-.4.383,1.832,1.832,0,0,1-.559.229,3.182,3.182,0,0,1-.75.082A4.269,4.269,0,0,1,36.374,9.056ZM74.205,6.478a2.62,2.62,0,0,1-.731-1.962,2.625,2.625,0,0,1,.733-1.973,2.747,2.747,0,0,1,1.981-.707,2.939,2.939,0,0,1,1.625.4,2.21,2.21,0,0,1,.867,1.211l-1.457.247a.926.926,0,0,0-.334-.589,1.087,1.087,0,0,0-.679-.2,1.164,1.164,0,0,0-.884.349A1.688,1.688,0,0,0,75,4.423a1.949,1.949,0,0,0,.335,1.288,1.155,1.155,0,0,0,.9.376,1.062,1.062,0,0,0,.692-.221A1.3,1.3,0,0,0,77.3,5.1l1.457.23a2.346,2.346,0,0,1-.87,1.387,2.893,2.893,0,0,1-1.726.468A2.71,2.71,0,0,1,74.205,6.478Zm7.884.28a1.374,1.374,0,0,1-.494-1.081,1.357,1.357,0,0,1,.226-.771,1.443,1.443,0,0,1,.634-.518,5.224,5.224,0,0,1,1.175-.315,8.783,8.783,0,0,0,1.435-.332V3.6a.687.687,0,0,0-.211-.563,1.337,1.337,0,0,0-.8-.169,1.123,1.123,0,0,0-.617.146,1.014,1.014,0,0,0-.357.51l-1.343-.213A1.954,1.954,0,0,1,82.521,2.2a3.048,3.048,0,0,1,1.645-.363,3.869,3.869,0,0,1,1.475.214,1.439,1.439,0,0,1,.682.544,2.564,2.564,0,0,1,.2,1.208l-.016,1.575a4.867,4.867,0,0,0,.072.994,2.726,2.726,0,0,0,.272.684H85.36c-.041-.093-.088-.224-.142-.391-.025-.082-.041-.131-.052-.156a2.714,2.714,0,0,1-.806.509,2.488,2.488,0,0,1-.916.169A2.012,2.012,0,0,1,82.089,6.758Zm2.082-1.926a2.878,2.878,0,0,0-.8.235.551.551,0,0,0-.287.473.634.634,0,0,0,.229.488.847.847,0,0,0,.586.205,1.352,1.352,0,0,0,.757-.239.845.845,0,0,0,.35-.445,2.41,2.41,0,0,0,.058-.656V4.626C84.872,4.685,84.571,4.755,84.171,4.832ZM54.335,6.959a1.407,1.407,0,0,1-.651-.638,2.629,2.629,0,0,1-.2-1.136V1.937h1.489V4.3a5.923,5.923,0,0,0,.081,1.327.727.727,0,0,0,.3.388.987.987,0,0,0,.548.141,1.237,1.237,0,0,0,.68-.191.987.987,0,0,0,.41-.473A5.081,5.081,0,0,0,57.1,4.1V1.937H58.59V7.055H57.215V6.29a2.178,2.178,0,0,1-.807.653,2.4,2.4,0,0,1-1.057.243A2.235,2.235,0,0,1,54.335,6.959Zm-8.5-.091a2.308,2.308,0,0,1-1.062-.932,2.893,2.893,0,0,1-.364-1.5,2.588,2.588,0,0,1,.364-1.306,2.4,2.4,0,0,1,1.03-.964A3.307,3.307,0,0,1,47.3,1.838a2.954,2.954,0,0,1,2.083.754A2.5,2.5,0,0,1,50.19,4.5a2.533,2.533,0,0,1-.82,1.925,2.927,2.927,0,0,1-2.065.763A3.529,3.529,0,0,1,45.838,6.868Zm.491-3.525a1.616,1.616,0,0,0-.4,1.169,1.613,1.613,0,0,0,.4,1.169,1.37,1.37,0,0,0,1.947,0A1.636,1.636,0,0,0,48.667,4.5a1.61,1.61,0,0,0-.391-1.159,1.37,1.37,0,0,0-1.947,0ZM23.012,6.476a2.736,2.736,0,0,1-.69-1.984,2.709,2.709,0,0,1,.67-1.977,2.294,2.294,0,0,1,1.7-.677,2.2,2.2,0,0,1,1.626.711V0H27.8V7.055H26.429V6.3a2.252,2.252,0,0,1-.813.66,2.211,2.211,0,0,1-.944.221A2.243,2.243,0,0,1,23.012,6.476ZM24.2,3.255A1.636,1.636,0,0,0,23.844,4.4a2.173,2.173,0,0,0,.249,1.186A1.151,1.151,0,0,0,25.1,6.12a1.139,1.139,0,0,0,.873-.4,1.737,1.737,0,0,0,.36-1.189,1.89,1.89,0,0,0-.349-1.273,1.15,1.15,0,0,0-.895-.389A1.167,1.167,0,0,0,24.2,3.255Zm-8.806,3.8H13.906V1.937H15.28v.749a2.335,2.335,0,0,1,1.84-.849A2.417,2.417,0,0,1,18.014,2a1.522,1.522,0,0,1,.612.411,1.439,1.439,0,0,1,.289.567A3.743,3.743,0,0,1,19,3.884V7.054H17.507v-2.6a3.762,3.762,0,0,0-.094-1.069.754.754,0,0,0-.305-.375.916.916,0,0,0-.507-.136,1.243,1.243,0,0,0-.681.193.99.99,0,0,0-.413.509A4.125,4.125,0,0,0,15.4,4.744V7.055h0Zm80.514,0V5.71H97.4V7.055Zm-5.818,0V1.937h1.374v.725a2.144,2.144,0,0,1,.633-.67,1.3,1.3,0,0,1,.639-.156,2,2,0,0,1,.971.256l-.466,1.18a1.355,1.355,0,0,0-.686-.22.85.85,0,0,0-.519.156,1.051,1.051,0,0,0-.335.564A7.447,7.447,0,0,0,91.58,5.48V7.055Zm-26.376,0H62.226V1.937H63.6v.725a2.154,2.154,0,0,1,.633-.67,1.309,1.309,0,0,1,.639-.156,2.013,2.013,0,0,1,.971.256l-.466,1.18a1.364,1.364,0,0,0-.686-.22.85.85,0,0,0-.518.156,1.059,1.059,0,0,0-.336.564,7.464,7.464,0,0,0-.122,1.708V7.054h0Zm-62.16,0H0V0H5.3V1.2H1.555V2.855H4.8v1.2H1.555v3h0Zm8.678,0H8.743V1.936h1.49V7.053h0Zm0-5.808H8.743V0h1.49V1.246h0Z" transform="translate(4587.399 -71.661)" fill="#fff"/><g transform="translate(4432 -115)"><path d="M13.363,6.7V5.952H12.62V5.208H11.136V4.464H8.909V3.72H7.424V.744H6.681V0H3.711V.744H2.97V6.7H0v3.72H.742v.744h.742v1.488h.743v1.489H2.97v1.489h.742v2.232H12.62V15.626h.743V13.393h.742V6.7Z" transform="translate(262.396 35.739)" fill="#fff"/><path d="M0,5.208H.742V0H0Z" transform="translate(275.016 43.18)"/><path d="M0,2.233H.742V0H0Z" transform="translate(274.274 48.388)"/><path d="M0,.745H.742V0H0Z" transform="translate(274.274 42.435)"/><path d="M1.485,0H0V2.977H.742V.745h.743Z" transform="translate(272.789 41.691)"/><path d="M2.227,0H0V2.976H.742V.744H2.227Z" transform="translate(270.562 40.947)"/><path d="M2.227,2.976H.742V0H0V6.7H.742V3.72H2.227Z" transform="translate(268.334 37.227)"/><path d="M0,.744H1.484V0H0Z" transform="translate(266.85 36.483)"/><path d="M.742,0V6.7H0v.744H.742V9.673h.743V0Z" transform="translate(265.365 37.227)"/><path d="M2.227,0H0V2.232H.742V.744H2.227Z" transform="translate(263.138 43.18)"/><path d="M0,.744H.743V0H0Z" transform="translate(263.88 45.411)"/><path d="M0,1.488H.742V0H0Z" transform="translate(264.623 46.155)"/><path d="M0,1.488H.742V0H0Z" transform="translate(265.365 47.644)"/><path d="M0,1.488H.743V0H0Z" transform="translate(266.107 49.132)"/><path d="M6.681,0V1.489H.742V0H0V2.232H7.424V0Z" transform="translate(266.85 50.62)"/></g></g></svg>