<svg width="39" height="17" viewBox="0 0 39 17" fill="none" xmlns="http://www.w3.org/2000/svg">
<path d="M36.792 14.4602C36.5165 14.4603 36.241 14.4604 35.9655 14.4605C35.9849 14.4263 36.0043 14.3919 36.0238 14.3576C36.1585 14.1194 36.3002 14.0429 36.6069 14.0428C36.7474 14.0428 36.8879 14.0427 37.0283 14.0426C36.9496 14.1818 36.8708 14.321 36.792 14.4602Z" fill="black"/>
<path d="M35.8999 16.0735C36.1531 15.6264 36.4063 15.1794 36.6595 14.7323C36.384 14.7324 36.1085 14.7325 35.8329 14.7326C35.6144 15.1185 35.3959 15.5044 35.1773 15.8903C35.1035 16.0206 35.0025 16.0739 34.8289 16.074C34.1594 16.0742 33.4898 16.0745 32.8203 16.0748C33.091 15.5966 33.3618 15.1185 33.6326 14.6404C33.7471 14.4383 33.7904 14.4239 34.0579 14.4239C34.138 14.4239 34.218 14.4238 34.2981 14.4238C34.5325 14.4237 34.6429 14.3684 34.7357 14.2046C34.7731 14.1385 34.8105 14.0723 34.8479 14.0062C34.5624 14.0063 34.2769 14.0065 33.9914 14.0066C34.1142 13.7895 34.237 13.5725 34.3599 13.3555C34.1798 13.3555 33.9998 13.3556 33.8197 13.3557C33.5844 13.3558 33.4741 13.4106 33.3822 13.573C33.3003 13.7176 33.2185 13.8623 33.1366 14.0069C32.9867 14.007 32.8368 14.007 32.6869 14.007C32.6081 14.1462 32.5294 14.2854 32.4506 14.4245C32.6005 14.4245 32.7505 14.4244 32.9004 14.4244C32.8081 14.5874 32.1617 15.7287 32.0694 15.8917C31.9956 16.0219 31.8949 16.075 31.7218 16.0751C31.1269 16.0754 30.532 16.0755 29.9371 16.0757C30.2533 15.5682 30.5697 15.0608 30.8859 14.5533C30.6674 14.5532 30.4492 14.5533 30.2307 14.5533C30.0777 14.5533 30.0121 14.597 29.9165 14.6974C29.9159 14.5877 29.871 14.5533 29.751 14.5532C29.5995 14.5531 29.4482 14.5528 29.2966 14.5529C28.5509 14.5533 28.1342 14.7553 27.8103 15.2748C27.6816 15.4813 27.5529 15.6878 27.4241 15.8942C27.3435 16.0237 27.2429 16.0765 27.0771 16.0765C26.6938 16.0766 26.3105 16.0767 25.9273 16.0767C25.5107 16.0768 25.3477 16.0242 25.3016 15.8326C25.2519 15.6262 25.3574 15.4586 25.915 15.1342C26.0201 15.0729 26.1254 15.0117 26.2306 14.9505C26.3775 14.865 26.4367 14.8204 26.4171 14.7277C26.3996 14.6449 26.3424 14.5535 25.8868 14.5535C25.166 14.5537 24.4451 14.5537 23.7242 14.5538C23.4954 14.5538 23.3888 14.6071 23.2854 14.773C23.0522 15.1473 22.819 15.5215 22.5858 15.8958C22.5055 16.0246 22.4049 16.0771 22.2387 16.0771C21.0816 16.0771 19.9247 16.0772 18.7677 16.0772C18.8171 15.9498 18.8665 15.8224 18.9158 15.6949C19.4936 15.6949 20.0714 15.6949 20.6492 15.6949C20.9911 15.6949 21.1329 15.6173 21.2562 15.3625C21.3113 15.2485 21.3665 15.1345 21.4217 15.0204C21.4632 14.9345 21.498 14.8126 21.4278 14.7195C21.3461 14.6112 21.1365 14.5539 20.8218 14.554C20.267 14.554 19.7122 14.554 19.1574 14.554C18.6254 14.554 18.3826 14.6842 18.1958 15.0701C18.0806 15.3082 17.9654 15.5463 17.8502 15.7843C17.7322 16.0281 17.545 16.0771 17.2811 16.0771C16.8842 16.0771 16.4874 16.0771 16.0906 16.0771C16.1155 16.0441 16.1405 16.0112 16.1654 15.9783C16.401 15.6677 16.3557 15.3221 16.0414 15.03C15.7328 14.7433 15.3231 14.642 14.96 14.5537C14.6514 14.5537 14.3428 14.5537 14.0342 14.5536C13.8219 14.8943 13.6096 15.2349 13.3974 15.5755C13.1318 16.0015 12.8432 16.0765 12.334 16.0765C11.9605 16.0765 11.587 16.0764 11.2135 16.0763C11.53 15.5687 11.8464 15.061 12.1628 14.5533C11.9435 14.5532 11.7245 14.5533 11.5051 14.5533C11.3521 14.5533 11.2865 14.597 11.1909 14.6974C11.1903 14.5877 11.1454 14.5533 11.0254 14.5532C10.8747 14.5531 10.7242 14.5528 10.5734 14.5529C9.8277 14.5533 9.41101 14.7553 9.08711 15.2748C8.95838 15.4813 8.82969 15.6878 8.70095 15.8942C8.6197 16.0246 8.52244 16.0755 8.3538 16.0755C7.78462 16.0753 7.21548 16.0751 6.64629 16.0749C7.12881 15.3006 7.61134 14.5263 8.09387 13.7519C8.17861 13.6159 8.06648 13.4499 7.88989 13.4499C5.62984 13.4499 3.36983 13.4499 1.10983 13.4499C0.64966 13.4499 0.422088 13.5523 0.204224 13.8775C1.18133 13.8779 2.15839 13.8783 3.13549 13.8787C2.59079 14.7525 2.04613 15.6263 1.50143 16.5C1.78271 16.5 2.06398 16.5 2.34525 16.5C2.88986 15.6264 3.43447 14.7527 3.97909 13.8791C4.37036 13.8792 4.76162 13.8794 5.15289 13.8795C4.6084 14.753 4.06392 15.6265 3.51943 16.5C3.8007 16.5 4.08197 16.5 4.36324 16.5C4.90765 15.6266 5.45205 14.7532 5.99649 13.8798C6.38776 13.88 6.77902 13.8801 7.17033 13.8802C6.72094 14.6013 6.2715 15.3223 5.82211 16.0434C5.76053 16.1422 5.7007 16.2803 5.76577 16.3765C5.82032 16.4573 5.95748 16.5 6.16231 16.5C6.9035 16.5 7.64468 16.5 8.38587 16.5C8.49501 16.5 8.54173 16.4688 8.60969 16.3975C8.61016 16.4756 8.6849 16.5 8.77024 16.5C10.0449 16.5 11.3195 16.5 12.5942 16.5C13.3527 16.5 13.7559 16.3055 14.0821 15.7822C14.25 15.5128 14.4179 15.2433 14.5859 14.9739C14.5916 14.9748 14.6319 14.9816 14.6377 14.9825C15.2402 15.0832 15.5458 15.2793 15.5718 15.5819C15.5824 15.7058 15.5382 15.8185 15.4439 15.908C15.3315 16.0147 15.1588 16.0763 14.97 16.0769C14.5848 16.0782 14.4304 16.2093 14.2807 16.5C15.3599 16.5 16.439 16.5 17.5182 16.5C17.6274 16.5 17.6741 16.4688 17.742 16.3975C17.7425 16.4756 17.8172 16.5 17.9025 16.5C19.4987 16.5 21.0949 16.5 22.6911 16.5C23.0142 16.5 23.1543 16.4252 23.3156 16.1664C23.5025 15.8665 23.6894 15.5666 23.8763 15.2667C24.0043 15.0615 24.163 14.9815 24.4423 14.9815C24.7236 14.9814 25.005 14.9814 25.2863 14.9813C25.1443 15.0683 24.9847 15.1796 24.8633 15.2883C24.7032 15.4325 24.5486 15.6317 24.5206 15.8896C24.501 16.0696 24.5512 16.2233 24.6658 16.334C24.7783 16.4426 24.9436 16.5 25.1437 16.5C25.7998 16.5 26.456 16.5 27.1121 16.5C27.2212 16.5 27.2679 16.4688 27.3359 16.3975C27.3363 16.4756 27.4111 16.5 27.4964 16.5C28.8771 16.5 30.2578 16.5 31.6384 16.5C31.7475 16.5 31.7943 16.4688 31.8623 16.3975C31.8627 16.4756 31.9374 16.5 32.0228 16.5C34.0647 16.5 36.1066 16.5 38.1485 16.5C38.5175 16.5 38.7047 16.3947 38.7745 16.1478C38.7816 16.1227 38.7887 16.0975 38.7958 16.0723C37.8305 16.0727 36.8652 16.0731 35.8999 16.0735ZM19.1197 15.1718C19.2031 14.9619 19.3962 14.9443 19.5705 14.9443C19.8852 14.9443 20.1999 14.9443 20.5147 14.9443C20.4929 15.0005 20.4712 15.0566 20.4494 15.1127C20.3729 15.3102 20.1995 15.3267 20.043 15.3267C19.7147 15.3267 19.3864 15.3267 19.0581 15.3267C19.0786 15.2751 19.0992 15.2234 19.1197 15.1718ZM10.5351 15.7889C10.4046 15.9982 10.2514 16.0761 9.96912 16.076C9.81352 16.0759 9.65791 16.0758 9.50231 16.0757C9.6706 15.8057 9.8389 15.5357 10.0072 15.2658C10.135 15.0606 10.2936 14.9806 10.5726 14.9806C10.7281 14.9806 10.8835 14.9806 11.0389 14.9806C10.871 15.2501 10.703 15.5195 10.5351 15.7889ZM29.2583 15.7889C29.1278 15.9982 28.9745 16.0761 28.6923 16.076C28.5367 16.0759 28.3811 16.0758 28.2255 16.0757C28.3938 15.8057 28.5621 15.5357 28.7304 15.2658C28.8583 15.0606 29.0169 14.9806 29.2958 14.9806C29.4513 14.9806 29.6067 14.9806 29.7621 14.9806C29.5942 15.2501 29.4262 15.5195 29.2583 15.7889Z" fill="black"/>
<path d="M18.651 10.959C18.651 10.8159 18.651 10.6728 18.651 10.5297C19.0275 10.5297 19.404 10.5297 19.7804 10.5297C20.1569 10.5297 20.5334 10.5297 20.9099 10.5297C20.9099 10.6728 20.9099 10.8159 20.9099 10.959C20.5334 10.959 20.1569 10.959 19.7805 10.959C19.404 10.959 19.0275 10.959 18.651 10.959Z" fill="black"/>
<path d="M19.7805 11.8483C20.0179 11.8483 20.2552 11.8483 20.4926 11.8483C20.4926 11.6259 20.4926 11.4035 20.4926 11.1812C20.2552 11.1812 20.0179 11.1812 19.7805 11.1812C19.5432 11.1812 19.3058 11.1812 19.0685 11.1812C19.0685 11.4035 19.0685 11.6259 19.0685 11.8483C19.3058 11.8483 19.5432 11.8483 19.7805 11.8483Z" fill="black"/>
<path d="M19.0685 10.3075C19.0665 9.93908 18.968 9.57951 18.6654 9.33472C19.0371 9.33472 19.4088 9.33472 19.7806 9.33472C20.1523 9.33472 20.524 9.33472 20.8958 9.33472C20.5932 9.57951 20.4947 9.93908 20.4926 10.3075C20.2553 10.3075 20.018 10.3075 19.7806 10.3075C19.5433 10.3075 19.3059 10.3075 19.0685 10.3075Z" fill="black"/>
<path d="M17.1823 8.62619C17.1823 8.52052 17.1823 8.41487 17.1823 8.3092C18.0483 8.3092 18.9144 8.3092 19.7805 8.3092C20.6465 8.3092 21.5127 8.3092 22.3787 8.3092C22.3787 8.41487 22.3787 8.52052 22.3787 8.62619C21.5127 8.62619 20.6466 8.62619 19.7805 8.62619C18.9144 8.62619 18.0483 8.62619 17.1823 8.62619Z" fill="black"/>
<path d="M17.4147 9.76892C17.718 9.70564 18.0454 9.53994 18.2625 9.33472C17.9613 9.33472 17.6601 9.33472 17.3589 9.33472C17.3775 9.47945 17.3961 9.62419 17.4147 9.76892Z" fill="black"/>
<path d="M22.1463 9.76892C21.8429 9.70564 21.5155 9.53994 21.2985 9.33472C21.5997 9.33472 21.9008 9.33472 22.202 9.33472C22.1834 9.47945 22.1649 9.62419 22.1463 9.76892Z" fill="black"/>
<path d="M17.0946 7.61401C16.8098 5.97173 16.2601 4.26173 15.6549 3.13696C16.3045 3.48028 17.0027 4.0249 17.7495 4.77086C17.4397 4.68949 17.1299 4.62562 16.8201 4.5792C17.252 5.57365 17.6089 6.58868 17.9333 7.61401C17.6537 7.61401 17.3741 7.61401 17.0946 7.61401Z" fill="black"/>
<path d="M22.4663 7.61401C22.751 5.97173 23.3008 4.26173 23.9059 3.13696C23.2564 3.48028 22.5582 4.0249 21.8113 4.77086C22.1211 4.68949 22.431 4.62562 22.7408 4.5792C22.3088 5.57365 21.952 6.58868 21.6276 7.61401C21.9071 7.61401 22.1867 7.61401 22.4663 7.61401Z" fill="black"/>
<path d="M16.9067 8.14395C16.9067 8.03692 16.9067 7.92991 16.9067 7.82288C17.8646 7.82288 18.8225 7.82288 19.7804 7.82288C20.7383 7.82288 21.6963 7.82288 22.6541 7.82288C22.6541 7.92991 22.6541 8.03692 22.6541 8.14395C21.6963 8.14395 20.7384 8.14395 19.7805 8.14395C18.8226 8.14395 17.8646 8.14395 16.9067 8.14395Z" fill="black"/>
<path d="M18.812 2.96341C19.2557 2.2201 19.6365 1.37518 19.7805 0.5C19.9244 1.37518 20.3052 2.2201 20.7489 2.96341C20.5909 2.89397 20.4235 2.82077 20.2381 2.74061C20.0775 2.67119 20.0092 2.71215 20.0147 2.87331C20.0681 4.45204 20.3065 6.24703 21.1528 7.61403C20.8204 7.61403 20.4881 7.61403 20.1558 7.61403C19.9996 7.25036 19.8745 6.89143 19.7805 6.53725C19.6864 6.89143 19.5613 7.25036 19.4052 7.61403C19.0728 7.61403 18.7405 7.61403 18.4082 7.61403C19.2545 6.24703 19.4929 4.45204 19.5463 2.87331C19.5518 2.71215 19.4835 2.67119 19.3228 2.74061C19.1374 2.82077 18.97 2.89397 18.812 2.96341Z" fill="black"/>
<path d="M16.9067 9.11258C16.9067 9.00555 16.9067 8.89854 16.9067 8.7915C17.8646 8.7915 18.8225 8.7915 19.7804 8.7915C20.7383 8.7915 21.6963 8.7915 22.6541 8.7915C22.6541 8.89854 22.6541 9.00555 22.6541 9.11258C21.6963 9.11258 20.7384 9.11258 19.7805 9.11258C18.8226 9.11258 17.8646 9.11258 16.9067 9.11258Z" fill="black"/>
</svg>
