<svg width="136" height="56" viewBox="0 0 136 56" fill="none" xmlns="http://www.w3.org/2000/svg">
<path d="M128.058 48.8606C127.093 48.8611 126.129 48.8615 125.165 48.8619C125.233 48.7419 125.301 48.6218 125.369 48.5017C125.84 47.6681 126.336 47.4003 127.41 47.3999C127.901 47.3996 128.393 47.3994 128.885 47.3991C128.609 47.8863 128.333 48.3734 128.058 48.8606Z" fill="white"/>
<path d="M124.935 54.5071C125.821 52.9425 126.707 51.3777 127.593 49.813C126.629 49.8134 125.665 49.8137 124.701 49.8141C123.936 51.1647 123.171 52.5154 122.406 53.8659C122.147 54.3222 121.794 54.5085 121.186 54.5088C118.843 54.5098 116.5 54.5107 114.156 54.5116C115.104 52.8381 116.052 51.1646 116.999 49.4912C117.4 48.7842 117.552 48.7337 118.488 48.7337C118.768 48.7335 119.048 48.7334 119.329 48.7334C120.149 48.733 120.535 48.5394 120.86 47.9661C120.991 47.7346 121.122 47.5031 121.253 47.2717C120.254 47.2721 119.254 47.2726 118.255 47.2731C118.685 46.5134 119.115 45.7537 119.545 44.9941C118.915 44.9944 118.284 44.9946 117.654 44.9949C116.831 44.9951 116.444 45.187 116.123 45.7554C115.836 46.2617 115.55 46.7679 115.263 47.274C114.739 47.2743 114.214 47.2744 113.689 47.2746C113.414 47.7617 113.138 48.2487 112.862 48.7358C113.387 48.7356 113.912 48.7355 114.437 48.7352C114.113 49.3058 111.851 53.3003 111.528 53.8709C111.27 54.3266 110.917 54.5125 110.312 54.5129C108.229 54.5137 106.147 54.5143 104.065 54.515C105.172 52.7388 106.279 50.9626 107.386 49.1865C106.621 49.186 105.858 49.1865 105.093 49.1865C104.557 49.1864 104.328 49.3395 103.993 49.6908C103.991 49.3069 103.834 49.1864 103.414 49.1862C102.884 49.1856 102.354 49.1846 101.823 49.185C99.2132 49.1865 97.7548 49.8935 96.6213 51.7119C96.1707 52.4345 95.7203 53.1571 95.2697 53.8796C94.9874 54.3328 94.6354 54.5176 94.055 54.5176C92.7136 54.518 91.372 54.5183 90.0306 54.5185C88.5726 54.5189 88.0023 54.3347 87.8408 53.6641C87.6669 52.9416 88.0362 52.3551 89.9875 51.2195C90.3557 51.0051 90.724 50.7909 91.0923 50.5766C91.6063 50.2773 91.8138 50.1215 91.7451 49.7971C91.6837 49.507 91.4837 49.1872 89.8892 49.1873C87.3661 49.1877 84.8431 49.188 82.3199 49.1883C81.5191 49.1883 81.146 49.3747 80.7841 49.9556C79.9679 51.2654 79.1516 52.5753 78.3354 53.8851C78.0543 54.3359 77.7024 54.5198 77.1206 54.5198C73.071 54.52 69.0215 54.5201 64.9721 54.5202C65.145 54.0743 65.3179 53.6283 65.4906 53.1823C67.5129 53.1823 69.5352 53.1823 71.5573 53.1821C72.754 53.1821 73.2504 52.9104 73.6818 52.0188C73.8749 51.6197 74.0681 51.2206 74.2611 50.8215C74.4066 50.5209 74.5282 50.0941 74.2824 49.7682C73.9966 49.3891 73.2631 49.1888 72.1613 49.1889C70.2197 49.1889 68.2779 49.189 66.3362 49.189C64.474 49.189 63.6243 49.6447 62.9706 50.9954C62.5674 51.8286 62.1641 52.6619 61.7609 53.4952C61.3481 54.3485 60.6929 54.52 59.7689 54.52C58.38 54.5198 56.991 54.5198 55.6022 54.5197C55.6895 54.4045 55.7769 54.2892 55.8642 54.174C56.6886 53.0868 56.5303 51.8771 55.4302 50.8551C54.3499 49.8516 52.9159 49.4968 51.6452 49.188C50.565 49.1879 49.4849 49.1877 48.4049 49.1876C47.6619 50.3798 46.9189 51.5719 46.1761 52.7641C45.2465 54.2553 44.2364 54.5179 42.4543 54.5177C41.147 54.5177 39.8398 54.5174 38.5326 54.5171C39.6401 52.7402 40.7475 50.9634 41.8549 49.1866C41.0874 49.186 40.3208 49.1866 39.5531 49.1866C39.0176 49.1864 38.788 49.3395 38.4534 49.6908C38.4512 49.3069 38.2941 49.1864 37.8741 49.1862C37.3468 49.1856 36.82 49.1846 36.292 49.185C33.6822 49.1866 32.2237 49.8935 31.0901 51.7119C30.6395 52.4345 30.1891 53.1572 29.7385 53.8796C29.4542 54.3362 29.1137 54.5143 28.5235 54.5141C26.5314 54.5136 24.5394 54.5129 22.5472 54.5123C24.2361 51.8021 25.9249 49.0918 27.6138 46.3815C27.9103 45.9056 27.5179 45.3247 26.8998 45.3247C18.9897 45.3247 11.0796 45.3247 3.16961 45.3247C1.55903 45.3247 0.762524 45.683 0 46.8212C3.41986 46.8226 6.83957 46.8241 10.2594 46.8255C8.35299 49.8837 6.44668 52.9418 4.54023 56C5.52469 56 6.50913 56 7.49358 56C9.39973 52.9422 11.3059 49.8844 13.212 46.8267C14.5815 46.8272 15.9509 46.8278 17.3203 46.8284C15.4146 49.8856 13.5089 52.9427 11.6032 56C12.5877 56 13.5721 56 14.5566 56C16.462 52.9431 18.3674 49.8863 20.2729 46.8294C21.6424 46.8298 23.0118 46.8303 24.3814 46.8307C22.8085 49.3544 21.2355 51.8781 19.6626 54.4018C19.4471 54.7477 19.2377 55.2309 19.4654 55.5678C19.6563 55.8505 20.1364 56 20.8533 56C23.4475 56 26.0416 56 28.6358 56C29.0178 56 29.1813 55.8906 29.4191 55.641C29.4208 55.9147 29.6824 56 29.981 56C34.4423 56 38.9035 56 43.3648 56C46.0196 56 47.4309 55.3191 48.5724 53.4877C49.1601 52.5447 49.748 51.6016 50.3358 50.6585C50.3559 50.6619 50.4969 50.6854 50.517 50.6888C52.6259 51.0411 53.6954 51.7274 53.7864 52.7867C53.8236 53.2202 53.6688 53.6147 53.3389 53.928C52.9454 54.3015 52.3409 54.5171 51.6802 54.5192C50.3321 54.5235 49.7918 54.9827 49.2677 56C53.0447 56 56.8218 56 60.599 56C60.981 56 61.1445 55.8906 61.3823 55.641C61.3838 55.9147 61.6454 56 61.9441 56C67.5308 56 73.1175 56 78.7042 56C79.835 56 80.3252 55.7381 80.8898 54.8325C81.5439 53.7828 82.1981 52.7332 82.8524 51.6835C83.3003 50.9651 83.8557 50.6852 84.8334 50.6852C85.818 50.6849 86.8027 50.6848 87.7873 50.6846C87.2904 50.9892 86.7318 51.3785 86.3069 51.7589C85.7464 52.2636 85.2054 52.9611 85.1072 53.8635C85.0386 54.4935 85.2143 55.0315 85.6156 55.4188C86.0094 55.7991 86.5878 56 87.2882 56C89.5847 56 91.8812 56 94.1775 56C94.5595 56 94.723 55.8906 94.9609 55.641C94.9624 55.9147 95.2241 56 95.5227 56C100.355 56 105.187 56 110.02 56C110.402 56 110.565 55.8906 110.803 55.641C110.805 55.9147 111.066 56 111.365 56C118.512 56 125.658 56 132.805 56C134.096 56 134.752 55.6312 134.996 54.7673C135.021 54.6793 135.046 54.5911 135.071 54.5031C131.692 54.5045 128.313 54.5058 124.935 54.5071ZM66.2041 51.3511C66.4961 50.6166 67.172 50.5551 67.7821 50.5551C68.8835 50.5551 69.985 50.5551 71.0866 50.5551C71.0104 50.7516 70.9344 50.948 70.8582 51.1443C70.5904 51.8355 69.9835 51.8935 69.4356 51.8935C68.2866 51.8935 67.1376 51.8935 65.9886 51.8935C66.0604 51.7127 66.1323 51.5319 66.2041 51.3511ZM36.1581 53.511C35.7014 54.2436 35.165 54.5164 34.1771 54.5159C33.6325 54.5155 33.0879 54.5153 32.5433 54.5149C33.1323 53.57 33.7214 52.625 34.3104 51.6801C34.7578 50.9621 35.3129 50.6821 36.2894 50.6821C36.8334 50.6821 37.3775 50.6821 37.9215 50.6821C37.3336 51.6252 36.7458 52.5681 36.1581 53.511ZM101.689 53.511C101.233 54.2436 100.696 54.5164 99.7083 54.5159C99.1637 54.5155 98.6191 54.5153 98.0745 54.5149C98.6635 53.57 99.2525 52.625 99.8416 51.6801C100.289 50.9621 100.844 50.6821 101.821 50.6821C102.365 50.6821 102.909 50.6821 103.453 50.6821C102.865 51.6252 102.277 52.5681 101.689 53.511Z" fill="white"/>
<path d="M64.5643 36.6065C64.5643 36.1056 64.5643 35.6047 64.5643 35.1037C65.8819 35.1037 67.1996 35.1037 68.5172 35.1037C69.8349 35.1037 71.1527 35.1037 72.4703 35.1037C72.4703 35.6047 72.4703 36.1056 72.4703 36.6065C71.1527 36.6065 69.835 36.6065 68.5173 36.6065C67.1998 36.6065 65.8819 36.6065 64.5643 36.6065Z" fill="white"/>
<path d="M68.5174 39.7192C69.3481 39.7192 70.1788 39.7192 71.0095 39.7192C71.0095 38.9408 71.0095 38.1624 71.0095 37.384C70.1788 37.384 69.3481 37.384 68.5174 37.384C67.6867 37.384 66.8558 37.384 66.0252 37.384C66.0252 38.1624 66.0252 38.9408 66.0252 39.7192C66.8558 39.7192 67.6867 39.7192 68.5174 39.7192Z" fill="white"/>
<path d="M66.0254 34.3262C66.0181 33.0369 65.6733 31.7784 64.6144 30.9216C65.9154 30.9216 67.2164 30.9216 68.5174 30.9216C69.8185 30.9216 71.1196 30.9216 72.4207 30.9216C71.3617 31.7784 71.0169 33.0369 71.0097 34.3262C70.179 34.3262 69.3483 34.3262 68.5176 34.3262C67.6869 34.3262 66.856 34.3262 66.0254 34.3262Z" fill="white"/>
<path d="M59.4235 28.4419C59.4235 28.0721 59.4235 27.7023 59.4235 27.3325C62.4548 27.3325 65.486 27.3325 68.5173 27.3325C71.5485 27.3325 74.58 27.3325 77.6113 27.3325C77.6113 27.7023 77.6113 28.0721 77.6113 28.4419C74.58 28.4419 71.5487 28.4419 68.5174 28.4419C65.4862 28.4419 62.4548 28.4419 59.4235 28.4419Z" fill="white"/>
<path d="M60.2373 32.4413C61.2991 32.2198 62.445 31.6399 63.2046 30.9216C62.1504 30.9216 61.0963 30.9216 60.0421 30.9216C60.1072 31.4282 60.1723 31.9347 60.2373 32.4413Z" fill="white"/>
<path d="M76.7977 32.4413C75.7359 32.2198 74.5901 31.6399 73.8304 30.9216C74.8846 30.9216 75.9388 30.9216 76.993 30.9216C76.9279 31.4282 76.8628 31.9347 76.7977 32.4413Z" fill="white"/>
<path d="M59.1168 24.8991C58.1201 19.1511 56.196 13.1661 54.0779 9.22944C56.3514 10.431 58.7951 12.3372 61.4092 14.9481C60.3248 14.6633 59.2404 14.4397 58.156 14.2773C59.6678 17.7578 60.9169 21.3104 62.0523 24.8991C61.0738 24.8991 60.0953 24.8991 59.1168 24.8991Z" fill="white"/>
<path d="M77.9178 24.8991C78.9146 19.1511 80.8386 13.1661 82.9567 9.22944C80.6833 10.431 78.2395 12.3372 75.6255 14.9481C76.7099 14.6633 77.7943 14.4397 78.8787 14.2773C77.3668 17.7578 76.1178 21.3104 74.9824 24.8991C75.9608 24.8991 76.9393 24.8991 77.9178 24.8991Z" fill="white"/>
<path d="M58.4593 26.7541C58.4593 26.3795 58.4593 26.0049 58.4593 25.6303C61.812 25.6303 65.1646 25.6303 68.5172 25.6303C71.8698 25.6303 75.2226 25.6303 78.5752 25.6303C78.5752 26.0049 78.5752 26.3795 78.5752 26.7541C75.2226 26.7541 71.87 26.7541 68.5173 26.7541C65.1647 26.7541 61.812 26.7541 58.4593 26.7541Z" fill="white"/>
<path d="M65.1278 8.62193C66.6807 6.02033 68.0135 3.06313 68.5173 0C69.0212 3.06313 70.354 6.02033 71.9069 8.62193C71.354 8.37889 70.7681 8.12268 70.119 7.84214C69.5569 7.59917 69.3179 7.74252 69.337 8.3066C69.5239 13.8321 70.3583 20.1146 73.3204 24.8991C72.1572 24.8991 70.9941 24.8991 69.831 24.8991C69.2843 23.6263 68.8465 22.37 68.5173 21.1304C68.1882 22.37 67.7503 23.6263 67.2037 24.8991C66.0406 24.8991 64.8775 24.8991 63.7144 24.8991C66.6764 20.1146 67.5108 13.8321 67.6977 8.3066C67.7168 7.74252 67.4778 7.59917 66.9156 7.84214C66.2667 8.12268 65.6808 8.37889 65.1278 8.62193Z" fill="white"/>
<path d="M58.4593 30.1441C58.4593 29.7695 58.4593 29.3949 58.4593 29.0203C61.812 29.0203 65.1646 29.0203 68.5172 29.0203C71.8698 29.0203 75.2226 29.0203 78.5752 29.0203C78.5752 29.3949 78.5752 29.7695 78.5752 30.1441C75.2226 30.1441 71.87 30.1441 68.5173 30.1441C65.1647 30.1441 61.812 30.1441 58.4593 30.1441Z" fill="white"/>
</svg>
